<svg xmlns="http://www.w3.org/2000/svg" width="512" height="512" viewBox="0 0 512 512" fill="none">
  <defs>
    <linearGradient id="folder" x1="80" y1="80" x2="335" y2="445" gradientUnits="userSpaceOnUse">
      <stop offset="0" stop-color="#FFC94E"/>
      <stop offset="0.55" stop-color="#F39A22"/>
      <stop offset="1" stop-color="#E26B14"/>
    </linearGradient>
    <linearGradient id="paper" x1="130" y1="55" x2="390" y2="430" gradientUnits="userSpaceOnUse">
      <stop offset="0" stop-color="#5B5B5B"/>
      <stop offset="0.55" stop-color="#303030"/>
      <stop offset="1" stop-color="#191919"/>
    </linearGradient>
    <linearGradient id="corner" x1="330" y1="70" x2="390" y2="135" gradientUnits="userSpaceOnUse">
      <stop stop-color="#777"/>
      <stop offset="1" stop-color="#262626"/>
    </linearGradient>
    <linearGradient id="orange" x1="312" y1="250" x2="454" y2="421" gradientUnits="userSpaceOnUse">
      <stop stop-color="#FFB13B"/>
      <stop offset="1" stop-color="#D66E12"/>
    </linearGradient>
    <linearGradient id="label" x1="20" y1="108" x2="151" y2="168" gradientUnits="userSpaceOnUse">
      <stop stop-color="#5B5B5B"/>
      <stop offset="1" stop-color="#2A2A2A"/>
    </linearGradient>
    <filter id="shadow" x="-20%" y="-20%" width="140%" height="150%">
      <feDropShadow dx="0" dy="10" stdDeviation="10" flood-color="#000" flood-opacity=".35"/>
    </filter>
    <filter id="soft" x="-20%" y="-20%" width="140%" height="140%">
      <feDropShadow dx="0" dy="4" stdDeviation="4" flood-color="#000" flood-opacity=".45"/>
    </filter>
  </defs>

  <!-- back folder -->
  <path d="M62 99c0-15 12-27 27-27h67l25 30h121c17 0 30 13 30 30v287c0 14-11 25-25 25H88c-14 0-26-12-26-26V99Z" fill="url(#folder)" filter="url(#shadow)"/>
  <path d="M62 126h270v293c0 14-11 25-25 25H88c-14 0-26-12-26-26V126Z" fill="#E9871D" opacity=".45"/>
  <path d="M84 85h76l18 24H84V85Z" fill="#FFD46A" opacity=".75"/>

  <!-- document -->
  <path d="M121 39h171l82 82v279c0 15-12 27-27 27H121c-15 0-27-12-27-27V66c0-15 12-27 27-27Z" fill="url(#paper)" filter="url(#shadow)"/>
  <path d="M292 39v82h82L292 39Z" fill="url(#corner)"/>
  <path d="M294 121h80l-80 4V121Z" fill="#000" opacity=".25"/>
  <path d="M105 63c0-7 6-13 13-13h158" stroke="#fff" stroke-opacity=".18" stroke-width="2"/>

  <!-- bookmark -->
  <path d="M134 10h43v98l-21-18-22 18V10Z" fill="#FFD15A" filter="url(#soft)"/>
  <path d="M134 10h43v10h-43V10Z" fill="#FFE28B"/>

  <!-- .HTML label -->
  <rect x="17" y="109" width="136" height="58" rx="10" fill="url(#label)" filter="url(#soft)"/>
  <rect x="22" y="114" width="126" height="13" rx="6" fill="#fff" opacity=".08"/>
  <text x="29" y="149" font-family="Arial Black, Arial, sans-serif" font-size="32" font-weight="900" fill="#FFA52C" stroke="#7B3E09" stroke-width="1">.HTML</text>

  <!-- code mark -->
  <g filter="url(#soft)">
    <path d="M192 179l-50 52 50 52 28-27-25-25 25-25-28-27Z" fill="#F2F2F2"/>
    <path d="M282 179l50 52-50 52-28-27 25-25-25-25 28-27Z" fill="#F2F2F2"/>
    <path d="M250 150h35l-54 166h-35l54-166Z" fill="#F7F7F7"/>
  </g>

  <!-- gear -->
  <g transform="translate(338 274)" filter="url(#soft)">
    <path fill-rule="evenodd" clip-rule="evenodd" d="M60 0h-22l-5 20c-5 2-10 4-14 7L1 17l-16 16 10 18c-3 5-5 10-7 15l-20 5v22l20 5c2 5 4 10 7 15l-10 18 16 16 18-10c4 3 9 5 14 7l5 20h22l5-20c5-2 10-4 14-7l18 10 16-16-10-18c3-5 5-10 7-15l20-5V71l-20-5c-2-5-4-10-7-15l10-18-16-16-18 10c-4-3-9-5-14-7L60 0Zm-11 42a39 39 0 1 0 0 78 39 39 0 0 0 0-78Z" fill="url(#orange)"/>
    <circle cx="49" cy="81" r="31" fill="#1D1D1D"/>
  </g>
</svg>
