<svg xmlns="http://www.w3.org/2000/svg" width="512" height="512" viewBox="0 0 512 512" fill="none">
  <defs>
    <linearGradient id="folder" x1="75" y1="72" x2="350" y2="446" gradientUnits="userSpaceOnUse">
      <stop stop-color="#86EFAC"/>
      <stop offset=".55" stop-color="#10B981"/>
      <stop offset="1" stop-color="#047857"/>
    </linearGradient>
    <linearGradient id="paper" x1="140" y1="45" x2="380" y2="430" gradientUnits="userSpaceOnUse">
      <stop stop-color="#5B5B5B"/>
      <stop offset=".55" stop-color="#303030"/>
      <stop offset="1" stop-color="#151515"/>
    </linearGradient>
    <filter id="shadow" x="-20%" y="-20%" width="140%" height="150%">
      <feDropShadow dx="0" dy="10" stdDeviation="10" flood-color="#000" flood-opacity=".35"/>
    </filter>
    <filter id="soft" x="-20%" y="-20%" width="140%" height="140%">
      <feDropShadow dx="0" dy="4" stdDeviation="4" flood-color="#000" flood-opacity=".4"/>
    </filter>
  </defs>
  <path d="M62 100c0-15 12-27 27-27h70l25 30h123c16 0 29 13 29 29v287c0 14-11 25-25 25H88c-14 0-26-12-26-26V100Z" fill="url(#folder)" filter="url(#shadow)"/>
  <path d="M121 39h171l82 82v279c0 15-12 27-27 27H121c-15 0-27-12-27-27V66c0-15 12-27 27-27Z" fill="url(#paper)" filter="url(#shadow)"/>
  <path d="M292 39v82h82L292 39Z" fill="#2B2B2B"/>
  <path d="M134 10h43v98l-21-18-22 18V10Z" fill="#A7F3D0" filter="url(#soft)"/>
  <rect x="17" y="109" width="132" height="58" rx="10" fill="#064E3B" filter="url(#soft)"/>
  <text x="34" y="150" font-family="Arial Black, Arial, sans-serif" font-size="34" font-weight="900" fill="#A7F3D0">.UX</text>
  <g filter="url(#soft)">
    <rect x="145" y="178" width="78" height="78" rx="14" fill="#0EA5E9"/>
    <path d="M164 216l17 18 31-38" stroke="#fff" stroke-width="13" stroke-linecap="round" stroke-linejoin="round"/>
    <rect x="245" y="178" width="78" height="78" rx="14" fill="#FDBA74"/>
    <path d="M267 200l34 34M301 200l-34 34" stroke="#fff" stroke-width="13" stroke-linecap="round"/>
    <text x="154" y="326" font-family="Arial Black, Arial, sans-serif" font-size="54" font-weight="900" fill="#F8FAFC">TEST</text>
  </g>
</svg>
