<svg xmlns="http://www.w3.org/2000/svg" width="512" height="512" viewBox="0 0 512 512" fill="none">
  <defs>
    <linearGradient id="folder" x1="75" y1="72" x2="350" y2="446" gradientUnits="userSpaceOnUse">
      <stop stop-color="#7DD3FC"/>
      <stop offset=".55" stop-color="#2563EB"/>
      <stop offset="1" stop-color="#1E3A8A"/>
    </linearGradient>
    <linearGradient id="paper" x1="140" y1="45" x2="380" y2="430" gradientUnits="userSpaceOnUse">
      <stop stop-color="#5B5B5B"/>
      <stop offset=".55" stop-color="#303030"/>
      <stop offset="1" stop-color="#151515"/>
    </linearGradient>
    <linearGradient id="badge" x1="315" y1="260" x2="455" y2="420" gradientUnits="userSpaceOnUse">
      <stop stop-color="#60A5FA"/>
      <stop offset="1" stop-color="#1D4ED8"/>
    </linearGradient>
    <filter id="shadow" x="-20%" y="-20%" width="140%" height="150%">
      <feDropShadow dx="0" dy="10" stdDeviation="10" flood-color="#000" flood-opacity=".35"/>
    </filter>
    <filter id="soft" x="-20%" y="-20%" width="140%" height="140%">
      <feDropShadow dx="0" dy="4" stdDeviation="4" flood-color="#000" flood-opacity=".4"/>
    </filter>
  </defs>
  <path d="M62 100c0-15 12-27 27-27h70l25 30h123c16 0 29 13 29 29v287c0 14-11 25-25 25H88c-14 0-26-12-26-26V100Z" fill="url(#folder)" filter="url(#shadow)"/>
  <path d="M121 39h171l82 82v279c0 15-12 27-27 27H121c-15 0-27-12-27-27V66c0-15 12-27 27-27Z" fill="url(#paper)" filter="url(#shadow)"/>
  <path d="M292 39v82h82L292 39Z" fill="#2B2B2B"/>
  <path d="M134 10h43v98l-21-18-22 18V10Z" fill="#93C5FD" filter="url(#soft)"/>
  <rect x="17" y="109" width="132" height="58" rx="10" fill="#1E3A8A" filter="url(#soft)"/>
  <text x="34" y="150" font-family="Arial Black, Arial, sans-serif" font-size="34" font-weight="900" fill="#BFDBFE">.TS</text>
  <g filter="url(#soft)">
    <rect x="155" y="160" width="170" height="150" rx="22" fill="#2563EB"/>
    <text x="184" y="264" font-family="Arial Black, Arial, sans-serif" font-size="86" font-weight="900" fill="#FFFFFF">TS</text>
  </g>
  <g transform="translate(338 274)" filter="url(#soft)">
    <path fill-rule="evenodd" clip-rule="evenodd" d="M60 0h-22l-5 20c-5 2-10 4-14 7L1 17l-16 16 10 18c-3 5-5 10-7 15l-20 5v22l20 5c2 5 4 10 7 15l-10 18 16 16 18-10c4 3 9 5 14 7l5 20h22l5-20c5-2 10-4 14-7l18 10 16-16-10-18c3-5 5-10 7-15l20-5V71l-20-5c-2-5-4-10-7-15l10-18-16-16-18 10c-4-3-9-5-14-7L60 0Zm-11 42a39 39 0 1 0 0 78 39 39 0 0 0 0-78Z" fill="url(#badge)"/>
    <circle cx="49" cy="81" r="31" fill="#0F172A"/>
  </g>
</svg>
